<svg width="18" height="18" viewBox="0 0 18 18" fill="none" xmlns="http://www.w3.org/2000/svg">
<path d="M14.5692 6.76919V4.57491C14.5692 3.4228 14.5692 2.84674 14.2889 2.4067C14.0424 2.01962 13.649 1.70492 13.1652 1.50769C12.6151 1.28348 11.895 1.28348 10.4549 1.28348H4.9692C3.52906 1.28348 2.80899 1.28348 2.25894 1.50769C1.77509 1.70492 1.38171 2.01962 1.13518 2.4067C0.854912 2.84674 0.854912 3.4228 0.854912 4.57491V11.7063C0.854912 12.8584 0.854912 13.4345 1.13518 13.8745C1.38171 14.2616 1.77509 14.5763 2.25894 14.7735C2.80899 14.9978 3.52906 14.9978 4.9692 14.9978H8.14063" stroke="#ED6B50" stroke-width="1.71429" stroke-linecap="round" stroke-linejoin="round"/>
<path d="M14.1406 9.8549L15.1824 12.6703L17.9978 13.712L15.1824 14.7538L14.1406 17.5692L13.0988 14.7538L10.2835 13.712L13.0988 12.6703L14.1406 9.8549Z" fill="#ED6B50"/>
<path d="M4.4753 11.8571H3.37709L5.84472 5H7.04004L9.50767 11.8571H8.40946L6.47084 6.24554H6.41727L4.4753 11.8571ZM4.65946 9.17188H8.22196V10.0424H4.65946V9.17188ZM11.5325 5V11.8571H10.4979V5H11.5325Z" fill="#ED6B50"/>
</svg>
