<svg width="1006" height="611" viewBox="0 0 1006 611" fill="none" xmlns="http://www.w3.org/2000/svg">
<g clip-path="url(#clip0_1_2138)">
<path opacity="0.06" d="M-152 575C-152 575 122.632 513.929 121.935 514.319C121.245 514.622 114.623 504.803 116.873 497.493C119.123 490.182 121.719 485.901 121.239 481.143C120.806 476.471 133.742 483.695 130.363 491.697C126.984 499.699 122.36 512.113 125.517 513.497C128.673 514.838 138.317 505.885 138.277 497.969C138.189 490.053 132.83 490.053 133.519 496.152C134.208 502.251 140.136 490.356 140.223 483.176C140.311 475.996 122.49 480.234 129.842 476.688C137.155 473.141 140.785 477.596 141.088 473.054C141.393 468.469 137.155 444.852 134.816 436.634C132.479 428.329 125.476 427.81 129.45 438.277C133.431 448.745 134.513 442.257 134.945 428.113C135.337 413.925 137.196 362.582 139.831 352.936C142.467 343.377 117.732 357.694 117.596 390.871C117.46 424.047 119.543 438.364 124.692 456.012C129.755 473.573 119.59 475.519 117.555 469.204C115.433 462.932 107.174 417.991 109.424 401.035C111.676 384.08 112.973 399.219 112.669 406.529C112.365 413.839 106.485 400.43 106.573 388.362C106.661 376.294 100.213 348.481 98.1384 348.395C96.0161 348.308 84.3373 351.552 84.4255 349.606C84.5127 347.659 91.9072 323.004 91.9072 323.004C91.9072 323.004 89.1834 321.49 88.8788 319.025C88.4871 316.516 93.9412 317.987 93.4204 319.76C92.9888 321.577 90.1767 323.696 94.1102 321.966C98.0437 320.149 101.936 317.208 99.0844 317.598C96.2325 317.901 90.0411 316.776 89.5687 314.527C89.1361 312.277 90.1767 311.585 92.3797 313.619C94.5837 315.652 98.9962 315.046 102.633 312.58C106.269 310.158 98.8681 317.728 101.639 316.041C104.41 314.354 108.519 313.316 108.56 310.634C108.648 307.909 103.89 309.596 104.796 310.85C105.701 312.061 108.729 308.731 109.554 307C110.378 305.27 108.215 304.664 105.188 306.395C102.159 308.125 93.3332 310.374 91.5618 309.552C89.7441 308.644 89.4406 308.644 88.6227 309.768C87.7166 310.893 86.2841 306.914 87.6293 305.486C88.9671 304.059 91.7781 309.466 90.9613 306.784C90.2241 304.145 87.5885 303.626 87.892 301.074C88.1965 298.522 92.3463 295.105 95.421 294.456C98.4892 293.764 95.0292 297.787 95.7256 302.588C96.4144 307.432 101.308 302.718 102.734 302.458C104.16 302.242 103.64 306.308 105.369 303.972C107.013 301.636 105.979 300.512 103.248 300.512C100.436 300.512 97.3679 303.366 97.9695 301.117C98.571 298.869 120.421 232.3 117.522 236.495C114.582 240.734 101.606 286.627 101.518 283.383C101.429 280.139 99.1791 247.655 100.524 239.739C101.862 231.91 100.308 220.361 96.847 212.446C93.387 204.53 83.7432 202.627 83.4386 219.842C83.0469 237.014 88.1965 284.854 89.4535 288.055C90.7514 291.299 83.8712 292.813 85.52 288.574C87.1623 284.335 100.747 284.508 97.3743 287.536C94.0424 290.563 87.1224 290.174 86.0882 296.36C85.0541 302.545 83.8368 299.517 80.9849 294.543C78.133 289.569 73.5032 269.282 73.8885 262.189C74.2802 255.095 80.2887 256.522 79.5525 264.135C78.8153 271.748 74.8818 262.535 74.1866 252.673C73.4967 242.811 74.0101 207.429 77.822 202.368C81.6748 197.307 88.2912 198.518 90.3252 202.8C92.3603 207.083 93.698 202.93 90.5415 199.946C87.3851 196.918 83.966 198.042 85.6556 196.182C87.257 194.366 92.6638 193.112 97.2936 187.575C101.876 182.081 105.12 181.909 104.775 188.007C104.431 194.106 105.167 195.49 106.721 193.371C108.364 191.165 115.845 190.127 117.967 190.819C120.09 191.554 114.596 187.445 111.608 181.303C108.621 175.161 108.06 176.458 106.546 179.486C105.031 182.514 103.991 180.005 105.208 177.366C106.424 174.728 109.141 176.069 110.269 172.608C111.392 169.148 111.351 163.092 110.486 161.016C109.661 158.897 106.337 156.432 105.944 153.49C105.552 150.549 105.552 145.661 108.066 145.055C110.533 144.45 113.73 147.824 113.17 151.241C112.561 154.614 113.561 154.788 114.291 156.95C115.068 159.156 110.918 159.805 109.75 157.469C108.627 155.134 105.383 151.976 107.114 149.554C108.843 147.218 112.175 149.857 111.182 152.106C110.229 154.355 107.634 153.144 108.715 151.5C109.797 149.856 110.838 146.959 109.107 146.526C107.378 146.094 102.315 147.953 103.525 145.099C104.734 142.244 110.141 139.086 117.11 141.033C124.031 142.979 156.167 146.31 153.355 143.239C150.544 140.167 125.24 137.745 116.197 137.659C107.154 137.572 106.937 138.091 104.951 140.211C103.004 142.33 100.281 142.028 101.707 138.005C103.133 134.025 104.518 140.86 104.343 137.097C104.215 133.42 104.863 126.673 109.709 120.574C114.555 114.475 120.266 109.847 128.396 111.663C136.526 113.48 140.291 115.037 138.041 112.485C135.79 109.933 129.951 110.842 128.22 110.28C126.578 109.847 126.098 108.246 130.775 108.766C135.445 109.285 139.818 109.588 141.244 114.648C142.67 119.709 139.947 119.319 140.291 116.681C140.595 114.043 148.51 120.055 150.152 124.467C151.794 128.879 152.491 136.059 152.402 139C152.227 141.941 147.948 138.611 150.848 138.092C153.7 137.573 160.708 144.796 158.458 144.667C156.12 144.537 151.28 144.234 150.239 146.57C149.118 148.906 150.848 148.906 149.719 150.333C148.597 151.761 148.164 152.583 147.901 154.572C147.684 156.519 148.333 162.185 146.475 168.284C144.616 174.297 142.798 173.474 142.238 176.416C141.717 179.357 139.209 182.991 131.512 181.26C123.814 179.53 115.595 170.101 114.946 164.824C114.297 159.547 113.129 166.77 116.589 172.653C120.05 178.535 125.327 181.477 129.91 182.471C134.451 183.466 139.426 180.741 139.555 183.812C139.73 186.97 133.586 195.577 134.107 199.73C134.628 203.796 128.917 196.096 125.76 194.669C122.692 193.155 115.9 192.42 123.036 196.788C130.174 201.157 132.032 199.859 133.201 205.829C134.371 211.798 135.02 224.385 136.878 229.489C138.737 234.593 133.546 209.419 134.674 204.099C135.756 198.649 139.953 195.448 142.981 192.636C145.92 189.868 145.015 185.326 143.806 182.991C142.596 180.655 142.251 179.617 145.751 181.693C149.388 183.813 153.754 183.51 152.024 187.359C150.381 191.295 143.717 192.507 148.172 189.176C152.713 185.845 158.296 185.196 163.999 187.359C169.711 189.565 173.475 194.15 177.321 200.465C181.167 206.78 194.278 222.179 197.394 223.606C200.509 225.034 180.051 224.342 179.099 219.756C178.192 215.172 175.165 202.628 175.246 210.543C175.334 218.372 177.801 227.802 175.678 227.975C173.556 228.104 122.218 232.949 121.61 234.982C121.002 237.015 308.51 209.894 309.511 209.938C310.591 210.024 276.725 265.952 275.597 267.682C274.515 269.412 273.393 270.84 270.71 270.926C267.986 271.013 263.83 271.056 267.161 273.435C270.534 275.771 276.374 274.776 276.502 272.916C276.63 271.056 276.806 267.639 277.583 270.58C278.32 273.521 276.069 274.04 276.246 275.727C276.333 277.457 277.367 280.096 274.948 279.966C272.529 279.836 264.39 278.366 265.087 277.198C265.783 276.03 267.722 275.078 265.824 275.468C263.918 275.857 261.153 278.928 262.667 280.009C264.093 281.004 270.196 281.134 271.927 281.653C273.745 282.172 274.995 280.745 274.264 282.042C273.528 283.34 270.893 283.253 269.162 282.951C267.344 282.561 262.762 281.523 264.276 283.253C265.83 284.984 269.939 285.2 270.547 284.681C271.156 284.162 272.968 284.378 272.061 285.373C271.156 286.281 270.46 286.108 268.426 286.195C266.391 286.195 265.614 284.897 264.662 286.324C263.667 287.752 249.954 311.498 248.874 312.018C247.832 312.537 102.457 346.924 102.153 348.222C101.849 349.519 181.998 329.449 183.43 330.487C184.856 331.526 188.925 385.075 186.891 402.636C184.856 420.197 180.619 414.185 181.917 406.009C183.127 397.921 190.007 410.162 189.743 422.576C189.568 435.033 186.715 460.726 185.593 468.642C184.384 476.557 176.381 477.984 176.983 460.942C177.591 443.9 170.279 375.082 165.433 359.078C160.587 343.161 141.386 343.939 145.664 357.651C149.949 371.363 156.004 395.282 159.85 405.966C163.783 416.737 165.818 419.678 164.392 407.696C162.966 395.715 158.593 402.116 160.459 422.922C162.365 443.727 170.407 461.462 169.67 468.555C168.934 475.649 161.148 476.341 169.366 479.802C177.584 483.262 189.655 478.591 186.323 481.835C182.95 485.165 168.589 480.71 168.244 484.041C167.941 487.371 166.426 493.686 168.028 497.147C169.63 500.607 176.463 504.759 178.801 501.429C181.139 498.098 177.071 492.389 176.55 496.584C175.942 500.823 184.032 505.927 184.897 510.209C185.721 514.492 199.692 519.552 202.543 519.423C205.395 519.293 205.875 510.512 198.09 505.711C190.345 500.823 181.437 494.551 183.167 490.875C184.985 487.198 188.662 481.748 191.69 488.366C194.717 495.07 198.394 500.045 203.368 502.683C208.342 505.321 209.944 510.685 210.248 513.41C210.553 516.179 208.045 519.076 208.045 519.076L275.517 518.969H508.536V293.642L459.111 316.412V404.039L499.364 390.118V505.155H458.788L459.759 418.176L447.781 418.608L448.32 504.94H410.55V423.572L396.197 424.867V505.264H339.11L342.023 228.03L402.456 189.18V418.824H396.844V373.607L367.059 378.248L367.168 370.586L396.413 363.787L396.305 278.426L362.959 291.484L362.42 281.771L396.089 268.606V237.742L355.837 259.109L353.801 494.814L362.204 493.424V425.946L447.888 415.586V260.188L413.787 281.771V417.96H410.226V277.994L444.219 257.599V214.864L405.262 195.116L404.614 190.259L447.888 212.706V255.44L505.838 220.368L613.106 239.684L612.891 232.13L545.551 221.447L546.63 51.5569L624.221 0V504.616H529.149V272.059L511.234 268.93L458.896 293.21L457.925 259.649L507.025 229.217L610.841 248.965V285.333L533.357 272.815L533.681 499.76L538.537 499.652L539.184 297.419L630.265 309.182V0L877.715 165.007L882.463 512.818H852.786V245.08L780.267 234.936V505.588H627.783L753.458 498.289L753.072 437.601L750.59 227.058L642.675 206.231L854.444 224.317L855.349 170.952L636.2 43.4166L636.371 253.888L736.77 274.554L737.497 303.363L636.398 287.308L636.416 308.858L702.892 317.707V518.969H1051.76" stroke="white" stroke-width="1.5" stroke-miterlimit="10" stroke-linecap="round" stroke-linejoin="round"/>
</g>
<defs>
<clipPath id="clip0_1_2138">
<rect width="1158" height="611" fill="white" transform="translate(-152)"/>
</clipPath>
</defs>
</svg>
